<svg id="Capa_1" data-name="Capa 1" xmlns="http://www.w3.org/2000/svg" viewBox="0 0 307.76 365.89"><defs><style>.cls-1{fill:none;}.cls-1,.cls-2{stroke:#fff;stroke-miterlimit:10;stroke-width:3px;}.cls-2,.cls-3{fill:#fff;}</style></defs><title>gir</title><path class="cls-1" d="M544.09,143.48s-48.92-37.12-122.79-37.12-122.79,37.12-122.79,37.12-4.19,188.89,48,232.76,74.77,49,74.77,49,30.73-9.75,82.93-53.62S544.09,143.48,544.09,143.48Z" transform="translate(-296.93 -60.92)"/><path class="cls-2" d="M482.4,185.86,548.69,169l-19,61.49,17.16,67.2-64.54-10.31s-22.51-23.58-22.51-60.86S482.4,185.86,482.4,185.86Z" transform="translate(-296.93 -60.92)"/><path class="cls-3" d="M346.53,358.05S441.9,386.4,505.9,336.82" transform="translate(-296.93 -60.92)"/><path class="cls-3" d="M346.53,358.05q10.14,2.29,20.41,3.72T387.53,364a244,244,0,0,0,41.26-.31,184,184,0,0,0,20.38-3,160.79,160.79,0,0,0,19.9-5.32,143.56,143.56,0,0,0,36.83-18.52c-2.73,2.12-5.36,4.43-8.29,6.3-1.44,1-2.85,2-4.33,2.91l-4.47,2.7a127.54,127.54,0,0,1-19,8.82,160.6,160.6,0,0,1-40.78,9.1c-6.95.62-13.92.93-20.89.88s-13.94-.47-20.86-1.22A206.24,206.24,0,0,1,346.53,358.05Z" transform="translate(-296.93 -60.92)"/><path class="cls-2" d="M603.19,237c0-37.57-24.4-68-54.5-68s-54.5,30.45-54.5,68,22.53,60.67,52.63,60.67S603.19,274.53,603.19,237Z" transform="translate(-296.93 -60.92)"/><ellipse class="cls-2" cx="75.51" cy="183.48" rx="54.5" ry="60.58"/><polygon class="cls-2" points="82.9 303.45 64.72 262.07 118.01 257.46 112.92 304.83 82.9 303.45"/><polygon class="cls-3" points="94.44 304.83 91.36 276.2 100.59 304.9 94.44 304.83"/><circle class="cls-3" cx="43.4" cy="8.92" r="8.92"/><path class="cls-1" d="M384.6,109.43S367,80,350.88,72.61c0,0,21.5,2.37,57.9,34.11Z" transform="translate(-296.93 -60.92)"/></svg>