<svg id="Capa_1" data-name="Capa 1" xmlns="http://www.w3.org/2000/svg" viewBox="0 0 383.74 369.67"><defs><style>.cls-1{fill:#fff;stroke:#211915;stroke-miterlimit:10;stroke-width:3px;}</style></defs><title>shapeb</title><path class="cls-1" d="M513.65,148.15s25.62,101.47-15.37,85.07S370.16,246,370.16,129.7c0,116.33-87.12,87.12-128.11,103.52s-15.38-85.07-15.38-85.07-102,167.57-5.12,344.37c0,0-8.2-104,16.4-120.94s19,69.7,34.85,69.7,1-64.66,23.57-64.66,13.32,68.76,45.09,68.76,2.05-124,28.7-124-3.07,124,28.7,124,22.55-68.76,45.1-68.76,7.68,64.66,23.57,64.66,10.25-86.61,34.85-69.7,16.39,120.94,16.39,120.94C615.63,315.72,513.65,148.15,513.65,148.15Z" transform="translate(-178.29 -129.7)"/></svg>